<svg width="40" height="25" viewBox="0 0 40 25" fill="none" xmlns="http://www.w3.org/2000/svg">
<path d="M18.1818 1.69697C18.1818 0.759759 17.3678 0 16.3636 0C15.3595 0 14.5455 0.759759 14.5455 1.69697V22.5455C14.5455 23.4827 15.3595 24.2424 16.3636 24.2424C17.3678 24.2424 18.1818 23.4827 18.1818 22.5455V1.69697Z" fill="#5C4CE8"/>
<path d="M25.4545 1.69697C25.4545 0.759759 24.6405 0 23.6364 0C22.6322 0 21.8182 0.759759 21.8182 1.69697V22.5455C21.8182 23.4827 22.6322 24.2424 23.6364 24.2424C24.6405 24.2424 25.4545 23.4827 25.4545 22.5455V1.69697Z" fill="#5C4CE8"/>
<path d="M10.9091 5.86667C10.9091 5.30434 10.0951 4.84848 9.09091 4.84848C8.08675 4.84848 7.27273 5.30434 7.27273 5.86667V18.3758C7.27273 18.9381 8.08675 19.3939 9.09091 19.3939C10.0951 19.3939 10.9091 18.9381 10.9091 18.3758V5.86667Z" fill="#5C4CE8"/>
<path d="M32.7273 5.86667C32.7273 5.30434 31.9132 4.84848 30.9091 4.84848C29.9049 4.84848 29.0909 5.30434 29.0909 5.86667V18.3758C29.0909 18.9381 29.9049 19.3939 30.9091 19.3939C31.9132 19.3939 32.7273 18.9381 32.7273 18.3758V5.86667Z" fill="#5C4CE8"/>
<path d="M3.63636 7.95151C3.63636 7.57663 2.82234 7.27273 1.81818 7.27273C0.814028 7.27273 0 7.57663 0 7.95151V16.2909C0 16.6658 0.814028 16.9697 1.81818 16.9697C2.82234 16.9697 3.63636 16.6658 3.63636 16.2909V7.95151Z" fill="#5C4CE8"/>
<path d="M40 7.95151C40 7.57663 39.186 7.27273 38.1818 7.27273C37.1777 7.27273 36.3636 7.57663 36.3636 7.95151V16.2909C36.3636 16.6658 37.1777 16.9697 38.1818 16.9697C39.186 16.9697 40 16.6658 40 16.2909V7.95151Z" fill="#5C4CE8"/>
</svg>
