<svg width="24" height="24" viewBox="0 0 24 24" fill="none" xmlns="http://www.w3.org/2000/svg">
<path fill-rule="evenodd" clip-rule="evenodd" d="M24 7.50715C24 7.22099 24 6.93482 24 6.64865C24 6.41017 24 6.16216 23.9905 5.92369C23.9809 5.39905 23.9428 4.86486 23.8474 4.34976C23.752 3.82512 23.5994 3.32909 23.3514 2.85215C23.1129 2.38474 22.7981 1.94595 22.4261 1.57393C22.0541 1.20191 21.6248 0.887122 21.1479 0.648649C20.6709 0.400636 20.1749 0.248013 19.6502 0.152623C19.1256 0.0572337 18.601 0.0286169 18.0763 0.00953895C17.8378 0.00953895 17.5994 0 17.3514 0C17.0652 0 16.779 0 16.4928 0H7.50715C7.22099 0 6.93482 0 6.64865 0C6.41017 0 6.16216 0 5.92369 0.00953895C5.39905 0.0286169 4.86486 0.0572337 4.34976 0.152623C3.81558 0.248013 3.32909 0.400636 2.85215 0.648649C2.3752 0.887122 1.94595 1.20191 1.57393 1.57393C1.20191 1.94595 0.887122 2.3752 0.648649 2.85215C0.400636 3.32909 0.248013 3.81558 0.152623 4.34976C0.0572337 4.8744 0.0286169 5.39905 0.00953895 5.92369C0.00953895 6.16216 0 6.41017 0 6.64865C0 6.93482 0 7.22099 0 7.50715V16.4928C0 16.779 0 17.0652 0 17.3514C0 17.5898 0 17.8378 0.00953895 18.0763C0.0190779 18.601 0.0572337 19.1351 0.152623 19.6502C0.248013 20.1749 0.400636 20.6709 0.648649 21.1479C0.887122 21.6153 1.20191 22.0541 1.57393 22.4261C1.94595 22.7981 2.3752 23.1129 2.85215 23.3514C3.32909 23.5994 3.81558 23.7615 4.34976 23.8474C4.8744 23.9428 5.39905 23.9714 5.92369 23.9905C6.16216 24 6.41017 24 6.64865 24C6.93482 24 7.22099 24 7.50715 24H16.4928C16.779 24 17.0652 24 17.3514 24C17.5898 24 17.8378 24 18.0763 23.9905C18.601 23.9809 19.1351 23.9428 19.6502 23.8474C20.1749 23.752 20.6709 23.5994 21.1479 23.3514C21.6153 23.1129 22.0541 22.7981 22.4261 22.4261C22.7981 22.0541 23.1129 21.6248 23.3514 21.1479C23.5994 20.6709 23.752 20.1749 23.8474 19.6502C23.9428 19.1256 23.9714 18.601 23.9905 18.0763C24 17.8378 24 17.5898 24 17.3514C24 17.0652 24 16.779 24 16.4928V7.50715V7.50715Z" fill="url(#paint0_linear_1937_476)"/>
<path fill-rule="evenodd" clip-rule="evenodd" d="M16.9698 3.66288C16.9126 3.67242 16.3975 3.75827 16.3307 3.76781L9.19559 5.21773C9.00481 5.25588 8.86172 5.32266 8.74725 5.41805C8.61371 5.53251 8.5374 5.69468 8.50878 5.87592C8.50878 5.92361 8.49924 5.99992 8.49924 6.12393C8.49924 6.12393 8.49924 13.4117 8.49924 15.0524C8.49924 15.2622 8.48016 15.4626 8.33708 15.6343C8.194 15.806 8.02229 15.8632 7.81244 15.9014C7.65981 15.93 7.49765 15.9681 7.34503 15.9967C6.75361 16.1112 6.37206 16.1971 6.02865 16.3306C5.69479 16.4642 5.44678 16.6263 5.24646 16.8266C4.85536 17.2368 4.6932 17.7996 4.75043 18.3147C4.79813 18.763 4.99845 19.1828 5.34185 19.5071C5.57078 19.7169 5.86649 19.8791 6.20989 19.9554C6.56284 20.0317 6.94439 20.0031 7.49765 19.8886C7.79336 19.8314 8.06999 19.736 8.32754 19.5834C8.58509 19.4308 8.81403 19.2209 8.98573 18.9729C9.15743 18.7249 9.2719 18.4483 9.33867 18.1525C9.40544 17.8473 9.41498 17.5707 9.41498 17.2654V9.51979C9.41498 9.10008 9.52945 8.99515 9.86331 8.91884C9.86331 8.91884 15.7965 7.72647 16.0732 7.66924C16.4547 7.59293 16.6455 7.70739 16.6455 8.10803V13.3926C16.6455 13.6025 16.6455 13.8123 16.5024 13.984C16.3593 14.1557 16.1876 14.213 15.9778 14.2511C15.8252 14.2797 15.663 14.3179 15.5104 14.3465C14.919 14.461 14.5374 14.5468 14.194 14.6804C13.8601 14.8139 13.6121 14.9761 13.4118 15.1764C13.0207 15.5866 12.849 16.1494 12.8967 16.6645C12.9444 17.1128 13.1542 17.5325 13.5072 17.8568C13.7361 18.0667 14.0318 18.2289 14.3752 18.2956C14.7282 18.3719 15.1097 18.3433 15.663 18.2289C15.9587 18.1716 16.2353 18.0858 16.4929 17.9236C16.7504 17.771 16.9794 17.5611 17.1511 17.3131C17.3228 17.0651 17.4372 16.7885 17.504 16.4928C17.5708 16.1875 17.5708 15.9109 17.5708 15.6056V4.30199C17.5708 3.88228 17.3514 3.63426 16.9698 3.66288Z" fill="white"/>
<defs>
<linearGradient id="paint0_linear_1937_476" x1="12" y1="23.9101" x2="12" y2="0.517392" gradientUnits="userSpaceOnUse">
<stop stop-color="#FA233B"/>
<stop offset="1" stop-color="#FB5C74"/>
</linearGradient>
</defs>
</svg>
