<svg width="24" height="24" viewBox="0 0 24 24" fill="none" xmlns="http://www.w3.org/2000/svg">
<path fill-rule="evenodd" clip-rule="evenodd" d="M20.1289 3.66159C20.351 2.37458 20.6768 1.56528 21.0377 1.56373H21.0385C21.7115 1.56605 22.257 4.37273 22.257 7.838C22.257 11.3032 21.7107 14.1122 21.0369 14.1122C20.7607 14.1122 20.5059 13.6353 20.3006 12.836C19.9763 15.7617 19.3033 17.7731 18.5243 17.7731C17.9215 17.7731 17.3805 16.5649 17.0173 14.6595C16.7693 18.2832 16.1451 20.8541 15.4156 20.8541C14.9578 20.8541 14.5404 19.8354 14.2314 18.1766C13.8598 21.6008 13.0014 24.0001 12.0002 24.0001C10.9991 24.0001 10.1392 21.6016 9.76911 18.1766C9.46236 19.8354 9.04501 20.8541 8.58486 20.8541C7.8554 20.8541 7.23275 18.2832 6.98325 14.6595C6.62005 16.5649 6.08059 17.7731 5.47624 17.7731C4.69793 17.7731 4.02418 15.7625 3.69989 12.836C3.49616 13.6376 3.23978 14.1122 2.96356 14.1122C2.28979 14.1122 1.74346 11.3032 1.74346 7.838C1.74346 4.37273 2.28979 1.56373 2.96356 1.56373C3.32524 1.56373 3.64877 2.37535 3.8731 3.66159C4.2325 1.44237 4.81623 0 5.47624 0C6.25989 0 6.939 2.03989 7.26025 5.00193C7.5746 2.8461 8.0515 1.47175 8.58566 1.47175C9.33416 1.47175 9.97057 4.17485 10.2064 7.94545C10.6497 6.01219 11.2914 4.79941 12.0018 4.79941C12.7122 4.79941 13.3539 6.01299 13.7964 7.94545C14.033 4.17485 14.6686 1.47175 15.4171 1.47175C15.9505 1.47175 16.4267 2.8461 16.7426 5.00193C17.063 2.03989 17.7421 0 18.5258 0C19.1835 0 19.7695 1.44315 20.1289 3.66159ZM0 7.22089C0 5.67183 0.309796 4.41574 0.692079 4.41574C1.07436 4.41574 1.38416 5.67183 1.38416 7.22089C1.38416 8.7699 1.07436 10.026 0.692079 10.026C0.309796 10.026 0 8.7699 0 7.22089ZM22.6158 7.22089C22.6158 5.67183 22.9256 4.41574 23.3079 4.41574C23.6902 4.41574 24 5.67183 24 7.22089C24 8.7699 23.6902 10.026 23.3079 10.026C22.9256 10.026 22.6158 8.7699 22.6158 7.22089Z" fill="#A238FF"/>
</svg>
