<svg width="25" height="25" viewBox="0 0 25 25" fill="none" xmlns="http://www.w3.org/2000/svg">
<g clip-path="url(#clip0_1942_947)">
<path d="M10.4375 24.875C4.5 23.8125 0 18.6875 0 12.5C0 5.625 5.625 0 12.5 0C19.375 0 25 5.625 25 12.5C25 18.6875 20.5 23.8125 14.5625 24.875L13.875 24.3125H11.125L10.4375 24.875Z" fill="url(#paint0_linear_1942_947)"/>
<path d="M17.375 16L17.9375 12.5H14.625V10.0625C14.625 9.0625 15 8.3125 16.5 8.3125H18.125V5.125C17.25 5 16.25 4.875 15.375 4.875C12.5 4.875 10.5 6.625 10.5 9.75V12.5H7.375V16H10.5V24.8125C11.1875 24.9375 11.875 25 12.5625 25C13.25 25 13.9375 24.9375 14.625 24.8125V16H17.375Z" fill="white"/>
</g>
<defs>
<linearGradient id="paint0_linear_1942_947" x1="12.5006" y1="24.1306" x2="12.5006" y2="-0.00460486" gradientUnits="userSpaceOnUse">
<stop stop-color="#0062E0"/>
<stop offset="1" stop-color="#19AFFF"/>
</linearGradient>
<clipPath id="clip0_1942_947">
<rect width="25" height="25" fill="white"/>
</clipPath>
</defs>
</svg>
