<svg width="18" height="18" viewBox="0 0 18 18" fill="none" xmlns="http://www.w3.org/2000/svg">
<g clip-path="url(#clip0_908_1093)">
<path d="M11.6097 3.25903H5.93338C4.36591 3.25903 3.09521 4.52972 3.09521 6.0972V11.7735C3.09521 13.341 4.36591 14.6117 5.93338 14.6117H11.6097C13.1772 14.6117 14.4479 13.341 14.4479 11.7735V6.0972C14.4479 4.52972 13.1772 3.25903 11.6097 3.25903Z" stroke="#CDCDCD" stroke-width="1.36511" stroke-linecap="round" stroke-linejoin="round"/>
<path d="M8.77121 11.0641C9.94681 11.0641 10.8998 10.1111 10.8998 8.93551C10.8998 7.7599 9.94681 6.80688 8.77121 6.80688C7.5956 6.80688 6.64258 7.7599 6.64258 8.93551C6.64258 10.1111 7.5956 11.0641 8.77121 11.0641Z" stroke="#CDCDCD" stroke-width="1.36511" stroke-linecap="round" stroke-linejoin="round"/>
<path d="M11.9644 5.74243V5.74343" stroke="#CDCDCD" stroke-width="1.36511" stroke-linecap="round" stroke-linejoin="round"/>
</g>
<defs>
<clipPath id="clip0_908_1093">
<rect width="17.029" height="17.029" fill="white" transform="translate(0.256836 0.420898)"/>
</clipPath>
</defs>
</svg>
