<svg width="26" height="26" viewBox="0 0 26 26" fill="none" xmlns="http://www.w3.org/2000/svg">
<rect x="0.200195" y="0.199951" width="25.6" height="25.6" rx="8" fill="url(#paint0_linear_1937_604)"/>
<path d="M9.93398 12.9003C9.93398 11.2618 11.2618 9.93327 12.9003 9.93327C14.5387 9.93327 15.8672 11.2618 15.8672 12.9003C15.8672 14.5387 14.5387 15.8673 12.9003 15.8673C11.2618 15.8673 9.93398 14.5387 9.93398 12.9003ZM8.33008 12.9003C8.33008 15.4244 10.3761 17.4704 12.9003 17.4704C15.4244 17.4704 17.4704 15.4244 17.4704 12.9003C17.4704 10.3761 15.4244 8.33008 12.9003 8.33008C10.3761 8.33008 8.33008 10.3761 8.33008 12.9003ZM16.5833 8.14887C16.5832 8.36011 16.6458 8.56663 16.7631 8.74231C16.8804 8.918 17.0471 9.05495 17.2422 9.13587C17.4374 9.21678 17.6521 9.23802 17.8593 9.19689C18.0665 9.15577 18.2568 9.05412 18.4063 8.90481C18.5557 8.75551 18.6575 8.56524 18.6988 8.35808C18.7401 8.15092 18.719 7.93617 18.6383 7.74098C18.5575 7.54579 18.4207 7.37893 18.2451 7.2615C18.0695 7.14408 17.863 7.08135 17.6518 7.08127H17.6514C17.3682 7.0814 17.0967 7.19391 16.8964 7.39408C16.6962 7.59426 16.5836 7.86573 16.5833 8.14887ZM9.30455 20.1449C8.43681 20.1053 7.96517 19.9608 7.65174 19.8387C7.23621 19.6769 6.93972 19.4842 6.628 19.1729C6.31627 18.8617 6.12332 18.5655 5.96226 18.1499C5.84008 17.8366 5.69553 17.3648 5.65609 16.4971C5.61294 15.5589 5.60433 15.2771 5.60433 12.9003C5.60433 10.5235 5.61365 10.2425 5.65609 9.30356C5.69561 8.43582 5.84121 7.96496 5.96226 7.65074C6.12403 7.23521 6.3167 6.93872 6.628 6.627C6.93929 6.31528 7.23549 6.12232 7.65174 5.96126C7.96503 5.83908 8.43681 5.69454 9.30455 5.65509C10.2427 5.61194 10.5245 5.60333 12.9003 5.60333C15.276 5.60333 15.5581 5.61266 16.497 5.65509C17.3648 5.69461 17.8356 5.84022 18.1498 5.96126C18.5654 6.12232 18.8619 6.31571 19.1736 6.627C19.4853 6.9383 19.6776 7.23521 19.8393 7.65074C19.9615 7.96403 20.1061 8.43582 20.1455 9.30356C20.1886 10.2425 20.1973 10.5235 20.1973 12.9003C20.1973 15.2771 20.1886 15.5582 20.1455 16.4971C20.106 17.3648 19.9607 17.8365 19.8393 18.1499C19.6776 18.5655 19.4849 18.8619 19.1736 19.1729C18.8623 19.484 18.5654 19.6769 18.1498 19.8387C17.8366 19.9609 17.3648 20.1054 16.497 20.1449C15.5589 20.188 15.2771 20.1966 12.9003 20.1966C10.5235 20.1966 10.2424 20.188 9.30455 20.1449ZM9.23086 4.0539C8.28337 4.09705 7.63593 4.24728 7.07052 4.4673C6.48495 4.69451 5.98924 4.99932 5.49389 5.49389C4.99854 5.98846 4.6945 6.48495 4.4673 7.07052C4.24728 7.63629 4.09705 8.28337 4.0539 9.23086C4.01004 10.1798 4 10.4832 4 12.9003C4 15.3173 4.01004 15.6207 4.0539 16.5697C4.09705 17.5172 4.24728 18.1642 4.4673 18.73C4.6945 19.3152 4.99861 19.8123 5.49389 20.3066C5.98917 20.801 6.48495 21.1054 7.07052 21.3332C7.637 21.5532 8.28337 21.7035 9.23086 21.7466C10.1803 21.7898 10.4832 21.8005 12.9003 21.8005C15.3173 21.8005 15.6207 21.7905 16.5697 21.7466C17.5172 21.7035 18.1642 21.5532 18.73 21.3332C19.3152 21.1054 19.8113 20.8012 20.3066 20.3066C20.802 19.8121 21.1054 19.3152 21.3332 18.73C21.5532 18.1642 21.7042 17.5171 21.7466 16.5697C21.7898 15.62 21.7998 15.3173 21.7998 12.9003C21.7998 10.4832 21.7898 10.1798 21.7466 9.23086C21.7035 8.2833 21.5532 7.63593 21.3332 7.07052C21.1054 6.48531 20.8012 5.98924 20.3066 5.49389C19.8121 4.99854 19.3152 4.69451 18.7307 4.4673C18.1642 4.24728 17.5171 4.09634 16.5704 4.0539C15.6214 4.01075 15.318 4 12.901 4C10.4839 4 10.1803 4.01004 9.23086 4.0539Z" fill="white"/>
<defs>
<linearGradient id="paint0_linear_1937_604" x1="13.0002" y1="0.199951" x2="13.0002" y2="25.8" gradientUnits="userSpaceOnUse">
<stop offset="0.09" stop-color="#FA8F21"/>
<stop offset="0.78" stop-color="#D82D7E"/>
</linearGradient>
</defs>
</svg>
