<svg width="151" height="25" viewBox="0 0 151 25" fill="none" xmlns="http://www.w3.org/2000/svg">
<path d="M56.1467 19.5783C58.459 19.5783 60.9204 18.3352 60.9204 15.4759C60.9204 11.0005 54.5057 12.0945 54.5057 10.2297C54.5057 9.65788 55.1024 9.18548 56.0721 9.18548C57.4147 9.18548 58.086 9.9811 58.5087 10.7519L60.821 9.48384C59.901 7.818 58.2849 6.82347 56.1716 6.82347C53.8095 6.82347 51.6713 8.04177 51.6713 10.4038C51.6713 14.9538 57.9866 13.5863 57.9866 15.6499C57.9866 16.2964 57.3899 17.092 55.9975 17.092C54.3565 17.092 53.7101 15.9731 53.3869 15.0781L51 16.1472C51.5967 18.0119 53.5609 19.5783 56.1467 19.5783ZM68.4789 19.5783C72.2581 19.5783 74.6201 16.6445 74.6201 13.1885C74.6201 9.70761 72.2581 6.82347 68.4789 6.82347C64.6748 6.82347 62.3376 9.70761 62.3376 13.1885C62.3376 16.6445 64.6748 19.5783 68.4789 19.5783ZM68.4789 16.9677C66.2163 16.9677 65.3212 15.1775 65.3212 13.1885C65.3212 11.1745 66.2163 9.43411 68.4789 9.43411C70.7414 9.43411 71.6365 11.1745 71.6365 13.1885C71.6365 15.1775 70.7414 16.9677 68.4789 16.9677ZM81.0845 19.5783C82.5266 19.5783 83.8692 19.0811 84.7394 17.9125V19.3297H87.723V7.0721H84.7394V11.7215L84.7394 11.8686L84.7386 12.1696C84.7271 14.3037 84.5538 16.9677 81.9547 16.9677C79.8215 16.9677 79.6996 15.0668 79.6926 14.141L79.6922 7.0721H76.7086V14.73C76.7086 17.3406 78.0015 19.5783 81.0845 19.5783ZM94.1875 19.3297L94.1883 13.9868C94.1998 11.8815 94.3731 9.43411 96.9722 9.43411C99.2347 9.43411 99.2347 11.3237 99.2347 12.1691V19.3297H102.218V11.4232C102.218 8.51417 100.652 6.82347 97.8921 6.82347C96.4003 6.82347 95.0577 7.32074 94.1875 8.48931V7.0721H91.2039V19.3297H94.1875ZM109.652 19.5783C110.97 19.5783 112.338 19.1556 113.183 18.1114V19.3297H116.167V2H113.183V8.31527C112.412 7.39533 111.045 6.82347 109.652 6.82347C106.644 6.82347 104.481 9.18548 104.481 13.1885C104.481 16.8682 106.321 19.5783 109.652 19.5783ZM110.373 16.8185C108.384 16.8185 107.464 15.4759 107.464 13.2133C107.464 10.9259 108.409 9.53356 110.398 9.53356C112.537 9.53356 113.456 11.1745 113.456 13.2133C113.456 15.2521 112.537 16.8185 110.373 16.8185ZM122.432 19.5783C123.004 19.5783 123.675 19.454 124.347 19.2054V16.8185C123.999 16.918 123.675 16.9677 123.402 16.9677C122.855 16.9677 122.532 16.7439 122.532 16.1969V2H119.548V16.3958C119.548 18.5838 120.766 19.5783 122.432 19.5783ZM131.632 19.5783C135.411 19.5783 137.773 16.6445 137.773 13.1885C137.773 9.70761 135.411 6.82347 131.632 6.82347C127.827 6.82347 125.49 9.70761 125.49 13.1885C125.49 16.6445 127.827 19.5783 131.632 19.5783ZM131.632 16.9677C129.369 16.9677 128.474 15.1775 128.474 13.1885C128.474 11.1745 129.369 9.43411 131.632 9.43411C133.894 9.43411 134.789 11.1745 134.789 13.1885C134.789 15.1775 133.894 16.9677 131.632 16.9677ZM144.908 24.6504C148.215 24.6504 150.552 23.5564 150.552 20.9955C150.552 18.0617 147.345 17.7882 144.859 17.4649C143.317 17.266 142.074 17.0174 142.074 16.1223C142.074 15.824 142.198 15.6251 142.422 15.4759C143.143 15.7742 143.939 15.9483 144.784 15.9483C147.469 15.9483 149.757 14.2079 149.757 11.4729C149.757 10.6773 149.558 9.95624 149.235 9.33466L151 7.89259L149.434 6.00298L147.569 7.59423C146.748 7.09697 145.754 6.82347 144.685 6.82347C141.95 6.82347 139.662 8.66335 139.662 11.3237C139.662 12.3928 140.035 13.3625 140.657 14.1333C139.936 14.7548 139.513 15.5256 139.513 16.5947C139.513 17.8628 140.11 18.6335 140.98 19.1059L139.215 20.2248C139.19 20.3491 139.165 20.4734 139.165 20.7718C139.165 23.3078 141.254 24.6504 144.908 24.6504ZM144.734 13.5117C143.342 13.5117 142.646 12.5669 142.646 11.3983C142.646 10.1551 143.466 9.3098 144.734 9.3098C146.002 9.3098 146.773 10.1303 146.773 11.3983C146.773 12.5917 146.102 13.5117 144.734 13.5117ZM145.033 22.4127C143.64 22.4127 142.124 22.0895 142.124 21.0453C142.124 20.9955 142.124 20.9209 142.149 20.8463L143.218 19.8269L144.237 19.9761C146.002 20.2248 147.569 20.3242 147.569 21.269C147.569 22.1144 146.301 22.4127 145.033 22.4127Z" fill="white"/>
<path d="M18.1818 1.69697C18.1818 0.759759 17.3678 0 16.3636 0C15.3595 0 14.5455 0.759759 14.5455 1.69697V22.5455C14.5455 23.4827 15.3595 24.2424 16.3636 24.2424C17.3678 24.2424 18.1818 23.4827 18.1818 22.5455V1.69697Z" fill="#594DDF"/>
<path d="M25.4545 1.69697C25.4545 0.759759 24.6405 0 23.6364 0C22.6322 0 21.8182 0.759759 21.8182 1.69697V22.5455C21.8182 23.4827 22.6322 24.2424 23.6364 24.2424C24.6405 24.2424 25.4545 23.4827 25.4545 22.5455V1.69697Z" fill="#594DDF"/>
<path d="M10.9091 5.86667C10.9091 5.30434 10.0951 4.84848 9.09091 4.84848C8.08676 4.84848 7.27273 5.30434 7.27273 5.86667V18.3758C7.27273 18.9381 8.08676 19.3939 9.09091 19.3939C10.0951 19.3939 10.9091 18.9381 10.9091 18.3758V5.86667Z" fill="#594DDF"/>
<path d="M32.7273 5.86667C32.7273 5.30434 31.9132 4.84848 30.9091 4.84848C29.9049 4.84848 29.0909 5.30434 29.0909 5.86667V18.3758C29.0909 18.9381 29.9049 19.3939 30.9091 19.3939C31.9132 19.3939 32.7273 18.9381 32.7273 18.3758V5.86667Z" fill="#594DDF"/>
<path d="M3.63636 7.95151C3.63636 7.57663 2.82234 7.27273 1.81818 7.27273C0.814028 7.27273 0 7.57663 0 7.95151V16.2909C0 16.6658 0.814028 16.9697 1.81818 16.9697C2.82234 16.9697 3.63636 16.6658 3.63636 16.2909V7.95151Z" fill="#594DDF"/>
<path d="M40 7.95151C40 7.57663 39.186 7.27273 38.1818 7.27273C37.1777 7.27273 36.3636 7.57663 36.3636 7.95151V16.2909C36.3636 16.6658 37.1777 16.9697 38.1818 16.9697C39.186 16.9697 40 16.6658 40 16.2909V7.95151Z" fill="#594DDF"/>
</svg>
