<svg width="301" height="301" viewBox="0 0 301 301" fill="none" xmlns="http://www.w3.org/2000/svg">
<circle cx="150.5" cy="150.5" r="150.5" fill="#2E2E2E"/>
<path d="M143 107C143 103.134 139.642 100 135.5 100C131.358 100 128 103.134 128 107V193C128 196.866 131.358 200 135.5 200C139.642 200 143 196.866 143 193V107Z" fill="#939393"/>
<path d="M173 107C173 103.134 169.642 100 165.5 100C161.358 100 158 103.134 158 107V193C158 196.866 161.358 200 165.5 200C169.642 200 173 196.866 173 193V107Z" fill="#939393"/>
<path d="M113 124.2C113 121.88 109.642 120 105.5 120C101.358 120 98 121.88 98 124.2V175.8C98 178.12 101.358 180 105.5 180C109.642 180 113 178.12 113 175.8V124.2Z" fill="#939393"/>
<path d="M203 124.2C203 121.88 199.642 120 195.5 120C191.358 120 188 121.88 188 124.2V175.8C188 178.12 191.358 180 195.5 180C199.642 180 203 178.12 203 175.8V124.2Z" fill="#939393"/>
<path d="M83 132.8C83 131.254 79.6421 130 75.5 130C71.3579 130 68 131.254 68 132.8V167.2C68 168.746 71.3579 170 75.5 170C79.6421 170 83 168.746 83 167.2V132.8Z" fill="#939393"/>
<path d="M233 132.8C233 131.254 229.642 130 225.5 130C221.358 130 218 131.254 218 132.8V167.2C218 168.746 221.358 170 225.5 170C229.642 170 233 168.746 233 167.2V132.8Z" fill="#939393"/>
</svg>
