<svg width="16" height="19" viewBox="0 0 16 19" fill="none" xmlns="http://www.w3.org/2000/svg">
<g clip-path="url(#clip0_2071_34)">
<path d="M8.14035 18.9749H8.13488C5.41597 18.9567 3.32577 18.0601 1.92076 16.3107C0.672464 14.7526 0.027361 12.5859 0.00549316 9.87061V9.85786C0.027361 7.14077 0.672464 4.97585 1.92258 3.41777C3.32577 1.66652 5.41779 0.769932 8.13488 0.751709H8.14035H8.14581C10.2306 0.766288 11.9745 1.30205 13.3285 2.34442C14.6023 3.32483 15.4989 4.72073 15.9927 6.49567L14.4438 6.92756C13.6055 3.92073 11.4843 2.38451 8.13852 2.36082C5.92987 2.37722 4.2588 3.07153 3.17269 4.42369C2.15766 5.69021 1.63283 7.51982 1.61278 9.86333C1.63283 12.2068 2.15766 14.0364 3.17451 15.303C4.26062 16.6569 5.93169 17.3513 8.14035 17.3658C10.1321 17.3513 11.4497 16.8866 12.5449 15.8132C13.795 14.5886 13.7731 13.0852 13.3722 12.1704C13.1372 11.631 12.7089 11.1827 12.1312 10.8419C11.9854 11.8679 11.6593 12.6989 11.1563 13.3257C10.4839 14.1622 9.53078 14.6196 8.3244 14.6852C7.41142 14.7344 6.53123 14.5194 5.84968 14.0765C5.0424 13.5535 4.57041 12.7554 4.51939 11.826C4.47019 10.9221 4.82918 10.0911 5.52896 9.4861C6.19775 8.90843 7.13807 8.56948 8.24969 8.50569C9.06791 8.46014 9.83511 8.49658 10.5422 8.61321C10.4474 8.05011 10.2579 7.60182 9.9736 7.27927C9.58363 6.83462 8.98044 6.60866 8.18226 6.60319C8.17497 6.60319 8.16768 6.60319 8.16039 6.60319C7.51893 6.60319 6.64786 6.77995 6.09388 7.60547L4.75994 6.71071C5.50344 5.60638 6.70982 4.99772 8.16039 4.99772C8.17132 4.99772 8.18226 4.99772 8.19319 4.99772C10.6187 5.0123 12.0638 6.49749 12.2078 9.08884C12.2898 9.12346 12.3718 9.15991 12.452 9.19636C13.5836 9.72847 14.411 10.5339 14.8465 11.5271C15.4515 12.9103 15.508 15.1645 13.6711 16.9631C12.2661 18.3371 10.5622 18.9585 8.14581 18.9749H8.14035ZM8.90208 10.0984C8.71802 10.0984 8.53215 10.1039 8.3408 10.1148C6.94672 10.1932 6.07748 10.8328 6.12668 11.7421C6.1777 12.6952 7.22918 13.138 8.24057 13.0834C9.16996 13.0342 10.38 12.6715 10.5841 10.2661C10.0702 10.1549 9.50709 10.0984 8.90208 10.0984Z" fill="#CDCDCD"/>
</g>
<defs>
<clipPath id="clip0_2071_34">
<rect width="16" height="18.2232" fill="white" transform="translate(0 0.751709)"/>
</clipPath>
</defs>
</svg>
