<svg xmlns="http://www.w3.org/2000/svg" fill="none" viewBox="0 0 24.439775910364144 27.860000000000003" style="max-height: 500px" width="24.439775910364144" height="27.860000000000003">
<g clip-path="url(#clip0_1937_635)">
<path fill="#EE1D52" d="M1.13477 23.7231L1.22417 23.9755C1.21272 23.9466 1.18001 23.8583 1.13477 23.7231ZM4.67278 18.0029C4.82979 16.6465 5.36294 15.8871 6.36765 15.1087C7.80521 14.0543 9.60093 14.6507 9.60093 14.6507V11.1127C10.0375 11.1011 10.4742 11.1281 10.906 11.1934V15.7465C10.906 15.7465 9.11084 15.1501 7.67328 16.2049C6.66912 16.9829 6.13487 17.7428 5.97842 19.0991C5.97351 19.8356 6.10598 20.7984 6.716 21.6308C6.56518 21.5501 6.41145 21.4582 6.25481 21.355C4.91101 20.4135 4.66624 19.001 4.67278 18.0029ZM18.3206 4.57092C17.3317 3.44028 16.9577 2.29874 16.8225 1.49683H18.0666C18.0666 1.49683 17.8185 3.59947 19.6262 5.66722L19.6513 5.69502C19.1641 5.37526 18.7173 4.99783 18.3206 4.57092ZM24.3134 7.7764V12.2379C24.3134 12.2379 22.7259 12.173 21.5511 11.8612C19.9108 11.4251 18.8565 10.7562 18.8565 10.7562C18.8565 10.7562 18.1282 10.2792 18.0693 10.2459V19.4589C18.0693 19.9719 17.9346 21.253 17.5241 22.3215C16.9882 23.7193 16.1613 24.6368 16.0092 24.8243C16.0092 24.8243 15.0034 26.0645 13.2289 26.8997C11.6294 27.6531 10.2251 27.634 9.80536 27.6531C9.80536 27.6531 7.37781 27.7534 5.1934 26.2722C4.72104 25.9458 4.2801 25.576 3.87632 25.1677L3.88722 25.1759C6.07218 26.6571 8.49918 26.5568 8.49918 26.5568C8.91949 26.5377 10.3238 26.5568 11.9227 25.8034C13.6955 24.9682 14.703 23.728 14.703 23.728C14.8534 23.5405 15.6842 22.623 16.218 21.2247C16.6274 20.1567 16.7631 18.8751 16.7631 18.3621V9.15017C16.822 9.18397 17.5497 9.66098 17.5497 9.66098C17.5497 9.66098 18.6046 10.3304 20.245 10.766C21.4203 11.0778 23.0072 11.1427 23.0072 11.1427V7.64665C23.5502 7.77367 24.013 7.80802 24.3134 7.7764Z" data-darkreader-inline-fill="" style="--darkreader-inline-fill: #b70e39;"/>
<path fill="white" d="M23.0076 7.64665V11.1416C23.0076 11.1416 21.4207 11.0767 20.2454 10.7649C18.605 10.3288 17.5501 9.65989 17.5501 9.65989C17.5501 9.65989 16.8224 9.18288 16.7635 9.14908V18.3632C16.7635 18.8762 16.6288 20.1578 16.2183 21.2258C15.6825 22.6241 14.8555 23.5416 14.7034 23.7291C14.7034 23.7291 13.697 24.9693 11.9231 25.8045C10.3242 26.5579 8.91988 26.5388 8.49957 26.5579C8.49957 26.5579 6.07256 26.6582 3.88761 25.177L3.8767 25.1688C3.64602 24.9358 3.42888 24.6897 3.22634 24.4318C2.52909 23.5448 2.1017 22.496 1.9943 22.1967C1.99412 22.1954 1.99412 22.1941 1.9943 22.1929C1.82149 21.6728 1.45842 20.4239 1.50803 19.2142C1.5958 17.0799 2.3154 15.7699 2.50565 15.4417C3.00954 14.5468 3.6649 13.7461 4.44257 13.0752C5.12882 12.4964 5.90666 12.0358 6.74419 11.7124C7.64959 11.3327 8.61911 11.1291 9.60077 11.1127V14.6507C9.60077 14.6507 7.80505 14.0565 6.36804 15.1087C5.36333 15.8871 4.83017 16.6465 4.67317 18.0029C4.66663 19.001 4.9114 20.4135 6.2541 21.3555C6.41074 21.4591 6.56447 21.551 6.7153 21.6314C6.94987 21.9495 7.23537 22.2267 7.56028 22.4518C8.87191 23.3181 9.97093 23.3786 11.3763 22.816C12.3134 22.4398 13.0189 21.5921 13.3459 20.6528C13.5515 20.0662 13.5487 19.4758 13.5487 18.8653V1.49683H16.8196C16.9548 2.29874 17.3288 3.44028 18.3177 4.57092C18.7144 4.99783 19.1612 5.37526 19.6484 5.69502C19.7923 5.85039 20.5283 6.6185 21.473 7.09006C21.9615 7.3338 22.4764 7.52056 23.0076 7.64665Z" data-darkreader-inline-fill="" style="--darkreader-inline-fill: #181a1b;"/>
<path fill="#69C9D0" d="M0.692383 21.1101V21.1128L0.773065 21.3423C0.763797 21.3156 0.733814 21.2344 0.692383 21.1101Z" data-darkreader-inline-fill="" style="--darkreader-inline-fill: #6fcbd2;"/>
<path fill="#69C9D0" d="M6.74449 11.7122C5.90696 12.0356 5.12912 12.4962 4.44287 13.0751C3.66494 13.7475 3.00975 14.5499 2.5065 15.4465C2.31624 15.7736 1.59664 17.0847 1.50887 19.219C1.45926 20.4286 1.82233 21.6776 1.99515 22.1976C1.99496 22.1989 1.99496 22.2002 1.99515 22.2015C2.10418 22.498 2.52994 23.5469 3.22718 24.4366C3.42972 24.6945 3.64686 24.9406 3.87755 25.1736C3.13843 24.6624 2.47925 24.0444 1.92155 23.3397C1.2303 22.4604 0.803995 21.4224 0.692785 21.1161C0.692654 21.1139 0.692654 21.1117 0.692785 21.1095V21.1057C0.519427 20.5862 0.155268 19.3367 0.205967 18.1254C0.293736 15.9911 1.01333 14.6811 1.20359 14.3529C1.70669 13.4562 2.36191 12.6538 3.13996 11.9815C3.82607 11.4025 4.60394 10.9419 5.44158 10.6187C5.96405 10.4019 6.50834 10.242 7.06503 10.1417C7.904 9.99522 8.76086 9.98252 9.60379 10.1041V11.1126C8.62121 11.1287 7.65073 11.3322 6.74449 11.7122Z" data-darkreader-inline-fill="" style="--darkreader-inline-fill: #287b81;"/>
<path fill="#69C9D0" d="M16.8228 1.49674H13.5519V18.8657C13.5519 19.4763 13.5519 20.0651 13.3491 20.6533C13.0188 21.592 12.3161 22.4397 11.3795 22.8159C9.97358 23.3807 8.87455 23.318 7.56347 22.4517C7.238 22.2276 6.95177 21.9514 6.71631 21.634C7.83332 22.2299 8.83312 22.2195 10.0717 21.7223C11.0077 21.3462 11.7115 20.4985 12.0408 19.5592C12.2468 18.9726 12.2441 18.3822 12.2441 17.7722V0.399902H16.7607C16.7607 0.399902 16.71 0.831661 16.8228 1.49674ZM23.0081 6.68002V7.64657C22.4778 7.52028 21.9639 7.33352 21.4762 7.08997C20.5315 6.61842 19.7955 5.8503 19.6516 5.69494C19.8186 5.80458 19.9919 5.90433 20.1706 5.99368C21.3192 6.56718 22.4504 6.73835 23.0081 6.68002Z" data-darkreader-inline-fill="" style="--darkreader-inline-fill: #287b81;"/>
</g>
<defs>
<clipPath id="clip0_1937_635">
<rect transform="translate(0.200195 0.399902)" fill="white" height="34.4" width="24.1131" data-darkreader-inline-fill="" style="--darkreader-inline-fill: #181a1b;"/>
</clipPath>
</defs>
</svg>