<svg width="18" height="17" viewBox="0 0 18 17" fill="none" xmlns="http://www.w3.org/2000/svg">
<g clip-path="url(#clip0_908_1111)">
<path d="M7.00571 8.37152C6.47314 8.37152 5.95253 8.52945 5.50971 8.82533C5.0669 9.1212 4.72177 9.54175 4.51796 10.0338C4.31415 10.5258 4.26083 11.0672 4.36473 11.5896C4.46863 12.1119 4.72508 12.5917 5.10167 12.9683C5.47825 13.3449 5.95805 13.6013 6.48038 13.7052C7.00272 13.8091 7.54414 13.7558 8.03617 13.552C8.5282 13.3482 8.94874 13.003 9.24462 12.5602C9.5405 12.1174 9.69843 11.5968 9.69843 11.0642V2.98608C9.69843 3.87878 10.053 4.7349 10.6843 5.36613C11.3155 5.99736 12.1716 6.35198 13.0643 6.35198" stroke="#CDCDCD" stroke-width="1.00977" stroke-linecap="round" stroke-linejoin="round"/>
</g>
<defs>
<clipPath id="clip0_908_1111">
<rect width="16.1563" height="16.1563" fill="white" transform="translate(0.947266 0.293457)"/>
</clipPath>
</defs>
</svg>
