<svg width="28" height="28" viewBox="0 0 28 28" fill="none" xmlns="http://www.w3.org/2000/svg">
<path d="M13.8935 27.668C21.5666 27.668 27.787 21.5497 27.787 14.0025C27.787 6.45519 21.5666 0.336914 13.8935 0.336914C6.22032 0.336914 0 6.45519 0 14.0025C0 21.5497 6.22032 27.668 13.8935 27.668Z" fill="#FF0000"/>
<path d="M13.8934 22.2029C18.4852 22.2029 22.2077 18.5315 22.2077 14.0026C22.2077 9.47366 18.4852 5.80225 13.8934 5.80225C9.30153 5.80225 5.5791 9.47366 5.5791 14.0026C5.5791 18.5315 9.30153 22.2029 13.8934 22.2029Z" fill="#FF0000" stroke="white" stroke-width="0.594585"/>
<path d="M11.0444 17.9861L18.3331 14.0023L11.0444 10.0137V17.9861Z" fill="white"/>
</svg>
